<svg width="73" height="112" viewBox="0 0 73 112" fill="none" xmlns="http://www.w3.org/2000/svg">
<path d="M2.4112 110.826L2.40732 110.825C1.5576 110.473 1 109.64 1 108.717V3.28125C1 2.01988 2.01988 1 3.28125 1H68.9062C70.1676 1 71.1875 2.01982 71.1877 3.28125C71.1877 3.28129 71.1877 3.28133 71.1877 3.28137V108.718C71.1877 109.64 70.6301 110.473 69.7804 110.825L69.775 110.827C68.9531 111.173 67.9582 110.995 67.2935 110.33C64.5599 107.597 60.1277 107.597 57.3942 110.33C56.5031 111.222 55.0596 111.222 54.1685 110.33C51.4349 107.597 47.0027 107.597 44.2692 110.33C43.3781 111.222 41.9346 111.222 41.0435 110.33C38.3099 107.597 33.8777 107.597 31.1442 110.33C30.2531 111.222 28.8096 111.222 27.9185 110.33C25.1849 107.597 20.7527 107.597 18.0192 110.33C17.1281 111.222 15.6846 111.222 14.7935 110.33C12.06 107.597 7.62781 107.597 4.89421 110.33C4.23759 110.987 3.25263 111.178 2.4112 110.826Z" fill="url(#paint0_linear_403_974)" stroke="url(#paint1_linear_403_974)" stroke-width="2"/>
<path d="M39.2503 22.7823V22.8704L39.3334 22.9C43.0976 24.2423 45.8128 27.805 45.8128 32.0216C45.8128 33.7663 44.4012 35.1779 42.6566 35.1779C40.912 35.1779 39.5003 33.7663 39.5003 32.0216C39.5003 30.1422 37.9704 28.6154 36.0941 28.6154C34.2178 28.6154 32.6878 30.1422 32.6878 32.0216C32.6878 33.9011 34.2178 35.4279 36.0941 35.4279C41.4533 35.4279 45.8128 39.7876 45.8128 45.1466C45.8128 49.3633 43.0976 52.9262 39.3334 54.2682L39.2503 54.2978V54.386V58.2716C39.2503 60.0163 37.8387 61.4279 36.0941 61.4279C34.3495 61.4279 32.9378 60.0163 32.9378 58.2716V54.386V54.2978L32.8548 54.2682C29.0906 52.926 26.3753 49.3633 26.3753 45.1466C26.3753 43.402 27.787 41.9904 29.5316 41.9904C31.2762 41.9904 32.6878 43.402 32.6878 45.1466C32.6878 47.0261 34.2178 48.5529 36.0941 48.5529C37.9704 48.5529 39.5003 47.0261 39.5003 45.1466C39.5003 43.2672 37.9704 41.7404 36.0941 41.7404C30.7351 41.7404 26.3753 37.3807 26.3753 32.0216C26.3753 27.805 29.0906 24.2423 32.8548 22.9L32.9378 22.8704V22.7823V18.8966C32.9378 17.152 34.3495 15.7404 36.0941 15.7404C37.8387 15.7404 39.2503 17.152 39.2503 18.8966V22.7823ZM13.2503 71.3966C13.2503 69.652 14.662 68.2404 16.4066 68.2404H36.0941C37.8387 68.2404 39.2503 69.652 39.2503 71.3966C39.2503 73.1413 37.8387 74.5529 36.0941 74.5529H16.4066C14.662 74.5529 13.2503 73.1413 13.2503 71.3966ZM13.2503 84.5216C13.2503 82.777 14.662 81.3654 16.4066 81.3654H36.0941C37.8387 81.3654 39.2503 82.777 39.2503 84.5216C39.2503 86.2663 37.8387 87.6779 36.0941 87.6779H16.4066C14.662 87.6779 13.2503 86.2663 13.2503 84.5216ZM55.7816 74.5529H49.2191C47.4745 74.5529 46.0628 73.1413 46.0628 71.3966C46.0628 69.652 47.4745 68.2404 49.2191 68.2404H55.7816C57.5262 68.2404 58.9378 69.652 58.9378 71.3966C58.9378 73.1413 57.5262 74.5529 55.7816 74.5529ZM49.2191 81.3654H55.7816C57.5262 81.3654 58.9378 82.777 58.9378 84.5216C58.9378 86.2663 57.5262 87.6779 55.7816 87.6779H49.2191C47.4745 87.6779 46.0628 86.2663 46.0628 84.5216C46.0628 82.777 47.4745 81.3654 49.2191 81.3654Z" fill="white" stroke="url(#paint2_linear_403_974)" stroke-width="0.25"/>
<defs>
<linearGradient id="paint0_linear_403_974" x1="36.0939" y1="-42.8026" x2="36.0939" y2="149.452" gradientUnits="userSpaceOnUse">
<stop offset="0.630208" stop-color="#FFAE00"/>
<stop offset="1" stop-color="#FFCD1E"/>
</linearGradient>
<linearGradient id="paint1_linear_403_974" x1="36.0939" y1="0" x2="36.0939" y2="112" gradientUnits="userSpaceOnUse">
<stop stop-color="#FF9F00"/>
<stop offset="1" stop-color="#FFB800"/>
</linearGradient>
<linearGradient id="paint2_linear_403_974" x1="36.0941" y1="15.6154" x2="36.0941" y2="87.8029" gradientUnits="userSpaceOnUse">
<stop stop-color="#FF9F00"/>
<stop offset="1" stop-color="#FFB800"/>
</linearGradient>
</defs>
</svg>
